<svg xmlns="http://www.w3.org/2000/svg" version="1.0" width="256.000000pt" height="256.000000pt" viewBox="0 0 256.000000 256.000000" preserveAspectRatio="xMidYMid meet">

<g transform="translate(0.000000,256.000000) scale(0.100000,-0.100000)" fill="#ffc107" stroke="none">
<path d="M1490 1910 c0 -5 10 -10 22 -10 l21 0 -21 -23 c-30 -32 -28 -37 16 -36 23 1 28 3 15 6 -28 5 -29 15 -3 38 29 26 25 35 -15 35 -19 0 -35 -4 -35 -10z" fill="#ffc107"/>
<path d="M1413 1853 c18 -5 18 -6 1 -24 -15 -17 -15 -19 0 -25 9 -3 24 -3 34 1 16 7 16 8 -2 14 -14 5 -16 10 -8 15 21 13 13 26 -15 25 -19 -1 -22 -3 -10 -6z" fill="#ffc107"/>
<path d="M1110 1768 c-18 -45 -67 -83 -102 -79 -37 3 -47 -23 -25 -61 9 -17 17 -36 17 -43 0 -7 -35 -25 -80 -41 -83 -30 -94 -38 -61 -49 12 -3 21 -19 26 -41 3 -20 5 -37 3 -39 -2 -1 -12 -7 -22 -12 -19 -10 -18 -11 2 -22 36 -19 28 -49 -20 -70 l-43 -18 35 -21 c19 -12 38 -22 42 -22 3 0 9 -14 13 -31 8 -34 -9 -59 -58 -89 l-28 -18 77 -44 78 -45 33 19 33 20 117 -64 118 -65 64 29 c55 24 69 27 92 18 23 -10 36 -7 100 25 88 44 86 42 71 57 -9 9 -2 16 28 29 22 10 40 25 40 33 0 9 14 23 31 32 l31 16 -31 19 c-38 23 -41 55 -6 71 14 6 25 15 25 19 0 5 -11 16 -25 25 -35 23 -33 59 5 79 17 9 30 18 30 20 0 2 -14 12 -31 21 -28 14 -30 19 -25 47 4 17 14 35 22 40 13 7 3 15 -46 37 -59 26 -63 30 -80 79 -20 60 -39 84 -85 105 -34 16 -128 20 -174 7 -29 -8 -112 18 -139 42 -27 24 -38 21 -52 -15z m52 -13 c8 -19 16 -23 33 -19 51 13 125 -58 125 -118 0 -37 -14 -35 -53 6 -18 19 -41 37 -53 40 -36 11 -127 -63 -164 -133 -17 -33 -30 -11 -30 52 0 27 -4 46 -9 43 -5 -3 -12 1 -15 10 -10 26 -7 34 14 34 11 0 20 -5 20 -11 0 -21 88 65 89 87 2 41 26 46 43 9z m336 -57 c35 -33 46 -57 52 -113 4 -40 8 -49 23 -47 9 2 17 -1 17 -7 0 -5 3 -16 6 -24 6 -16 -41 -37 -82 -37 -30 0 -39 18 -58 118 -9 45 -22 96 -31 112 -8 16 -15 31 -15 34 0 11 65 -16 88 -36z m-89 -17 c23 -54 30 -184 11 -196 -7 -4 -9 2 -5 18 11 41 -11 39 -28 -3 -15 -38 -16 -39 -46 -27 -22 8 -29 16 -25 27 37 86 37 138 0 194 -18 28 -11 34 40 35 28 1 34 -4 53 -48z m-152 -69 c21 -21 45 -41 53 -44 22 -8 -16 -76 -59 -105 -48 -33 -139 -32 -177 0 l-26 23 20 40 c25 49 104 124 131 124 11 0 37 -17 58 -38z m383 -92 c0 -9 -19 -24 -24 -19 -2 2 -7 15 -11 27 -6 22 -5 23 14 13 12 -7 21 -16 21 -21z m-686 -4 c-7 -29 9 -41 50 -38 18 2 37 -5 50 -17 45 -42 119 -53 181 -27 33 14 35 14 35 -3 0 -10 7 -24 15 -31 19 -16 68 2 94 36 23 29 82 41 110 22 18 -13 10 -18 -102 -68 -67 -30 -126 -54 -132 -52 -38 12 -375 166 -375 172 0 6 50 26 73 29 4 1 5 -10 1 -23z m50 8 c19 -19 12 -34 -15 -34 -19 0 -27 29 -12 43 9 9 9 9 27 -9z m646 -42 c0 -5 -24 -19 -52 -32 -63 -29 -63 -29 -56 -35 3 -3 26 4 52 16 26 11 50 19 52 16 2 -2 -16 -12 -41 -21 -25 -10 -45 -21 -45 -25 0 -4 -12 -13 -26 -20 -29 -13 -54 -4 -33 11 10 7 5 8 -13 4 -54 -12 -27 11 60 52 94 44 102 46 102 34z m-465 -129 c64 -28 87 -43 66 -43 -7 0 -46 15 -87 34 -41 19 -74 31 -74 27 0 -5 38 -26 85 -47 47 -21 85 -42 85 -46 0 -11 -1 -11 -55 13 -25 11 -49 19 -51 16 -3 -3 20 -17 52 -31 61 -28 71 -46 11 -21 -55 23 -58 17 -4 -11 26 -13 47 -29 47 -35 0 -6 -7 -8 -15 -5 -44 18 -51 18 -31 2 11 -9 26 -16 33 -16 7 0 13 -7 13 -15 0 -12 -10 -10 -50 10 -27 14 -50 22 -50 17 0 -5 23 -19 50 -32 28 -13 50 -27 50 -32 0 -5 -14 -1 -31 7 -17 9 -33 14 -36 11 -3 -3 11 -13 31 -22 20 -10 36 -24 36 -31 0 -9 -19 -4 -61 17 -33 17 -65 30 -71 28 -5 -2 22 -19 61 -38 39 -18 71 -37 71 -42 0 -11 -7 -10 -40 7 -17 9 -30 12 -30 7 0 -5 16 -16 35 -25 19 -9 35 -21 35 -27 0 -6 -32 6 -71 26 -39 19 -73 34 -74 32 -2 -2 30 -21 71 -42 41 -21 74 -42 74 -47 0 -5 -22 2 -50 16 -27 14 -50 22 -50 17 0 -5 23 -19 50 -32 43 -20 65 -40 44 -40 -11 0 -193 101 -199 110 -3 5 8 17 25 26 35 21 37 29 10 44 -10 6 -17 16 -14 24 3 7 -3 16 -12 20 -15 6 -11 11 19 32 20 13 37 28 37 33 0 15 -114 59 -130 51 -9 -5 -29 0 -50 11 l-35 20 30 -6 30 -5 -28 16 c-37 20 -28 30 10 11 49 -25 80 -29 34 -4 -34 19 -40 25 -27 30 10 4 30 0 46 -8 16 -8 35 -15 42 -15 7 1 -22 19 -66 41 -83 43 -99 65 -22 30 25 -11 46 -17 46 -12 0 4 -22 17 -50 28 -27 12 -50 26 -50 32 0 5 51 -13 113 -40 61 -28 139 -62 172 -76z m163 93 c11 -8 11 -12 -4 -23 -29 -21 -54 -16 -54 10 0 13 3 26 6 30 7 7 33 -1 52 -17z m326 -29 c17 -13 16 -14 -12 -26 -29 -12 -72 -8 -72 8 0 6 41 26 61 30 3 1 13 -5 23 -12z m-739 -27 c3 -5 -3 -10 -14 -10 -11 0 -23 5 -26 10 -3 6 3 10 14 10 11 0 23 -4 26 -10z m535 -20 c22 -11 40 -22 40 -25 0 -3 -21 -15 -47 -28 l-46 -24 -45 25 -45 25 44 23 c54 28 51 28 99 4z m129 1 c12 -8 10 -12 -12 -22 -41 -18 -32 -30 9 -13 20 8 38 13 40 11 3 -2 -18 -14 -46 -26 -53 -23 -61 -34 -32 -50 14 -9 11 -13 -25 -28 -24 -10 -43 -22 -43 -27 0 -4 6 -6 13 -3 6 3 29 12 50 21 20 9 37 12 37 8 0 -5 -19 -17 -42 -26 -24 -10 -38 -20 -31 -23 6 -2 25 3 42 12 48 24 81 35 81 26 0 -4 -27 -19 -60 -32 -33 -13 -60 -27 -60 -31 0 -4 18 -19 39 -34 33 -21 43 -24 61 -14 12 6 24 9 27 7 3 -3 -15 -14 -39 -25 -30 -13 -48 -16 -61 -10 -14 7 -16 13 -8 22 9 10 1 20 -30 41 -41 27 -41 27 -86 10 -24 -9 -52 -25 -61 -35 -9 -10 -32 -25 -51 -35 l-34 -17 23 -18 c23 -17 23 -18 3 -28 -18 -10 -21 -8 -27 19 -11 58 0 75 77 109 40 18 67 35 60 37 -6 2 -29 -5 -50 -15 -59 -30 -83 -36 -83 -20 0 8 41 33 92 56 50 23 89 44 86 47 -3 3 -44 -12 -92 -34 -47 -22 -86 -36 -86 -31 0 5 25 20 57 34 69 32 64 46 -6 15 -69 -29 -77 -17 -11 16 36 18 60 24 80 20 34 -7 143 42 136 62 -3 7 3 17 12 22 21 13 33 13 51 2z m-293 -56 c-23 -17 -36 -19 -36 -6 0 11 18 19 40 20 11 0 10 -3 -4 -14z m367 -30 c-1 -5 -15 -14 -30 -20 -25 -11 -32 -10 -52 6 l-23 19 33 14 c28 12 37 12 54 2 11 -8 19 -17 18 -21z m-748 13 c31 -14 32 -22 2 -35 -17 -8 -28 -7 -41 3 -11 7 -24 15 -30 18 -7 3 -6 8 4 15 19 14 33 14 65 -1z m430 3 c-17 -16 -85 -40 -85 -31 0 6 15 16 33 24 37 17 66 20 52 7z m-301 -33 l45 -22 -47 -32 -47 -32 -49 25 -49 25 44 28 c24 16 47 29 51 29 4 1 28 -9 52 -21z m-124 -62 c0 -3 -4 -8 -10 -11 -5 -3 -10 -1 -10 4 0 6 5 11 10 11 6 0 10 -2 10 -4z m749 -25 c11 -7 5 -14 -27 -30 -50 -25 -56 -26 -89 -4 l-25 17 48 22 c47 20 56 20 93 -5z m-699 -5 c16 -10 30 -11 42 -5 32 17 28 -8 -5 -33 -51 -39 -54 -39 -93 -16 l-37 22 29 23 c34 27 32 26 64 9z m518 -34 l23 -18 -37 -17 c-35 -17 -37 -17 -66 2 l-31 19 29 16 c38 20 54 19 82 -2z m-418 -21 c0 -11 -110 -76 -123 -73 -7 2 -36 17 -66 34 -42 25 -50 33 -38 40 11 6 31 0 65 -19 l49 -27 42 31 c38 28 71 34 71 14z m336 -32 c30 -18 35 -19 62 -5 26 14 31 13 66 -8 l37 -22 -70 -33 -69 -34 -61 37 c-33 21 -63 41 -66 47 -4 5 9 16 27 24 42 18 35 18 74 -6z m-52 -72 c16 -12 13 -15 -33 -37 -28 -13 -54 -21 -57 -17 -4 3 12 14 35 23 22 9 41 20 41 25 0 5 -16 2 -37 -6 -20 -8 -38 -13 -41 -10 -4 4 54 34 69 35 3 0 13 -6 23 -13z" fill="#ffc107"/>
<path d="M1212 1560 c-7 -11 -9 -20 -4 -20 10 0 32 22 32 32 0 15 -15 8 -28 -12z" fill="#ffc107"/>
<path d="M1201 1489 c-12 -12 -20 -24 -16 -27 3 -3 15 4 27 16 28 28 18 38 -11 11z" fill="#ffc107"/>
<path d="M1130 1486 c0 -8 -6 -16 -12 -19 -7 -2 -10 -8 -6 -12 4 -4 14 -2 23 5 17 14 20 40 5 40 -5 0 -10 -6 -10 -14z" fill="#ffc107"/>
<path d="M730 775 c-17 -21 -5 -44 30 -56 42 -15 38 -33 -5 -26 -41 7 -47 -9 -9 -23 59 -23 88 41 32 68 -38 18 -36 35 2 27 31 -7 42 8 14 19 -26 10 -51 7 -64 -9z" fill="#ffc107"/>
<path d="M1110 730 c0 -59 11 -78 25 -42 6 16 7 16 19 0 21 -29 38 -23 24 8 -9 20 -9 30 0 45 14 22 0 26 -18 4 -19 -23 -30 -18 -30 15 0 17 -4 30 -10 30 -6 0 -10 -27 -10 -60z" fill="#ffc107"/>
<path d="M1217 783 c-9 -8 -9 -50 0 -81 8 -33 49 -47 79 -27 20 13 24 24 24 65 0 64 -18 66 -22 3 -3 -44 -5 -48 -28 -48 -23 0 -25 4 -28 48 -3 44 -10 56 -25 40z" fill="#ffc107"/>
<path d="M1472 773 c-13 -27 -3 -103 14 -103 9 0 14 12 14 35 0 19 5 35 11 35 8 0 8 5 -1 15 -9 10 -9 15 -1 15 6 0 11 5 11 10 0 17 -39 11 -48 -7z" fill="#ffc107"/>
<path d="M1530 736 c0 -36 5 -58 15 -66 9 -7 17 -11 19 -9 2 2 1 32 -2 67 -3 44 -8 62 -18 62 -10 0 -14 -15 -14 -54z" fill="#ffc107"/>
<path d="M838 768 c-8 -23 4 -97 16 -101 7 -3 19 -1 27 3 11 7 10 10 -4 16 -19 7 -23 34 -6 51 9 9 8 16 -4 27 -19 19 -24 20 -29 4z" fill="#ffc107"/>
<path d="M917 753 c-13 -13 -7 -21 12 -16 10 3 22 0 25 -6 5 -7 -3 -11 -19 -11 -31 0 -45 -28 -22 -45 10 -7 28 -10 42 -7 21 4 25 10 25 42 0 25 -5 40 -16 44 -20 8 -39 8 -47 -1z m38 -52 c7 -12 -12 -24 -25 -16 -11 7 -4 25 10 25 5 0 11 -4 15 -9z" fill="#ffc107"/>
<path d="M1015 737 c-28 -43 13 -90 58 -65 21 13 21 13 -11 16 -28 3 -33 7 -30 25 2 16 9 21 26 19 30 -3 24 22 -6 26 -13 2 -26 -5 -37 -21z" fill="#ffc107"/>
<path d="M1355 751 c-3 -2 -5 -22 -5 -43 0 -27 4 -38 15 -38 10 0 15 10 15 29 0 17 5 33 11 37 14 8 29 -14 29 -43 0 -13 5 -23 10 -23 15 0 13 80 -2 82 -32 3 -69 3 -73 -1z" fill="#ffc107"/>
<path d="M1606 747 c-24 -17 -18 -67 9 -77 35 -13 65 6 65 39 0 44 -39 63 -74 38z m48 -23 c7 -19 -1 -34 -19 -34 -8 0 -16 4 -19 9 -9 14 4 41 19 41 7 0 16 -7 19 -16z" fill="#ffc107"/>
<path d="M1700 746 c0 -27 22 -76 35 -76 7 0 18 12 23 28 l10 27 7 -27 c13 -51 36 -36 59 40 11 35 -12 26 -27 -10 l-14 -33 -7 33 c-4 17 -12 32 -17 32 -6 0 -15 -15 -21 -32 l-12 -33 -8 33 c-8 32 -28 45 -28 18z" fill="#ffc107"/>
</g>
</svg>